<?xml version="1.0" encoding="UTF-8" standalone="no"?>
<svg viewBox="0 0 800 1200" xmlns="http://www.w3.org/2000/svg">
  <!-- Fondo con gradiente azul-negro que simboliza la tecnología y el misticismo -->
  <defs>
    <linearGradient id="fondo" x1="0%" y1="0%" x2="0%" y2="100%">
      <stop offset="0%" style="stop-color:#000033;stop-opacity:1" />
      <stop offset="100%" style="stop-color:#000000;stop-opacity:1" />
    </linearGradient>
    <radialGradient id="aura" cx="50%" cy="40%" r="50%" fx="50%" fy="40%">
      <stop offset="0%" style="stop-color:#ffffff;stop-opacity:0.9" />
      <stop offset="20%" style="stop-color:#f0f0ff;stop-opacity:0.8" />
      <stop offset="40%" style="stop-color:#d0d0ff;stop-opacity:0.6" />
      <stop offset="60%" style="stop-color:#a0a0ff;stop-opacity:0.4" />
      <stop offset="80%" style="stop-color:#8080ff;stop-opacity:0.2" />
      <stop offset="100%" style="stop-color:#4040ff;stop-opacity:0" />
    </radialGradient>
    <filter id="glow" x="-50%" y="-50%" width="200%" height="200%">
      <feGaussianBlur stdDeviation="15" result="blur" />
      <feComposite in="SourceGraphic" in2="blur" operator="over" />
    </filter>
    <filter id="softGlow" x="-10%" y="-10%" width="120%" height="120%">
      <feGaussianBlur stdDeviation="5" result="blur" />
      <feComposite in="SourceGraphic" in2="blur" operator="over" />
    </filter>
  </defs>
  
  <!-- Fondo principal -->
  <rect width="800" height="1200" fill="url(#fondo)" />
  
  <!-- Matriz de circuitos y líneas de código que representan la IA -->
  <g stroke="#0066ff" stroke-width="1" opacity="0.3">
    <!-- Circuitos horizontales -->
    <path d="M 50 200 L 750 200" />
    <path d="M 100 250 L 700 250" />
    <path d="M 150 300 L 650 300" />
    <path d="M 200 350 L 600 350" />
    <path d="M 50 800 L 750 800" />
    <path d="M 100 850 L 700 850" />
    <path d="M 150 900 L 650 900" />
    <path d="M 100 950 L 700 950" />
    
    <!-- Circuitos verticales -->
    <path d="M 200 200 L 200 350" />
    <path d="M 300 200 L 300 350" />
    <path d="M 400 200 L 400 350" />
    <path d="M 500 200 L 500 350" />
    <path d="M 600 200 L 600 350" />
    
    <path d="M 200 800 L 200 950" />
    <path d="M 300 800 L 300 950" />
    <path d="M 400 800 L 400 950" />
    <path d="M 500 800 L 500 950" />
    <path d="M 600 800 L 600 950" />
    
    <!-- Nodos en las intersecciones -->
    <circle cx="200" cy="200" r="4" fill="#0088ff" />
    <circle cx="300" cy="200" r="4" fill="#0088ff" />
    <circle cx="400" cy="200" r="4" fill="#0088ff" />
    <circle cx="500" cy="200" r="4" fill="#0088ff" />
    <circle cx="600" cy="200" r="4" fill="#0088ff" />
    
    <circle cx="200" cy="250" r="4" fill="#0088ff" />
    <circle cx="300" cy="250" r="4" fill="#0088ff" />
    <circle cx="400" cy="250" r="4" fill="#0088ff" />
    <circle cx="500" cy="250" r="4" fill="#0088ff" />
    <circle cx="600" cy="250" r="4" fill="#0088ff" />
    
    <circle cx="200" cy="300" r="4" fill="#0088ff" />
    <circle cx="300" cy="300" r="4" fill="#0088ff" />
    <circle cx="400" cy="300" r="4" fill="#0088ff" />
    <circle cx="500" cy="300" r="4" fill="#0088ff" />
    <circle cx="600" cy="300" r="4" fill="#0088ff" />
    
    <circle cx="200" cy="350" r="4" fill="#0088ff" />
    <circle cx="300" cy="350" r="4" fill="#0088ff" />
    <circle cx="400" cy="350" r="4" fill="#0088ff" />
    <circle cx="500" cy="350" r="4" fill="#0088ff" />
    <circle cx="600" cy="350" r="4" fill="#0088ff" />
  </g>
  
  <!-- Código binario sutil en el fondo -->
  <g fill="#0066ff" opacity="0.2" font-family="Courier New" font-size="14">
    <text x="50" y="400">01001001 01001110 01010100 01000101</text>
    <text x="50" y="420">01001100 01001001 01000111 01000101</text>
    <text x="50" y="440">01001110 01000011 01001001 01000001</text>
    <text x="50" y="460">00100000 01000001 01010010 01010100</text>
    <text x="50" y="480">01001001 01000110 01001001 01000011</text>
    <text x="50" y="500">01001001 01000001 01001100 00100000</text>
    <text x="50" y="520">01000011 01001111 01001110 01000011</text>
    <text x="50" y="540">01001001 01000101 01001110 01000011</text>
    <text x="50" y="560">01001001 01000001 00100000 00100000</text>
    
    <text x="450" y="400">01000001 01001100 01010000 01001000</text>
    <text x="450" y="420">01000001 00100000 01000001 01001110</text>
    <text x="450" y="440">01000100 00100000 01001111 01001101</text>
    <text x="450" y="460">01000101 01000111 01000001 00100000</text>
    <text x="450" y="480">01010011 01000001 01001100 01010110</text>
    <text x="450" y="500">01000001 01000011 01001001 01001111</text>
    <text x="450" y="520">01001110 00100000 01010000 01001111</text>
    <text x="450" y="540">01010010 00100000 01001100 01000001</text>
    <text x="450" y="560">00100000 01001001 01000001 00100000</text>
  </g>
  
  <!-- Aura luminosa central -->
  <circle cx="400" cy="450" r="350" fill="url(#aura)" opacity="0.3" />
  
  <!-- Figura de Jesús estilizada, modernizada, fusionada con tecnología -->
  <g transform="translate(400, 550) scale(1.2)">
    <!-- Silueta principal -->
    <path d="M 0,-120 
             C -10,-120 -20,-100 -20,-80 
             C -20,-60 -15,-40 -30,-20 
             L -40,0 L -30,10 L -20,5 L -15,30 
             L -35,100 L -30,120 
             L -20,100 L -5,30 
             L 0,40 
             L 5,30 L 20,100 L 30,120 
             L 35,100 L 15,30 
             L 20,5 L 30,10 L 40,0 
             L 30,-20 C 15,-40 20,-60 20,-80 
             C 20,-100 10,-120 0,-120 Z" 
          fill="#ffffff" opacity="0.9" />
    
    <!-- Elementos de circuito integrados en la figura -->
    <path d="M -20,-50 L -40,-50 M -15,0 L -50,0 M -10,50 L -40,50" 
          stroke="#0088ff" stroke-width="2" opacity="0.7" />
    <path d="M 20,-50 L 40,-50 M 15,0 L 50,0 M 10,50 L 40,50" 
          stroke="#0088ff" stroke-width="2" opacity="0.7" />
    
    <!-- Puntos brillantes que simbolizan interfaz digital -->
    <circle cx="-30" cy="-40" r="3" fill="#ffffff" filter="url(#softGlow)" />
    <circle cx="-25" cy="-35" r="2" fill="#ffffff" filter="url(#softGlow)" />
    <circle cx="-20" cy="-30" r="2.5" fill="#ffffff" filter="url(#softGlow)" />
    
    <circle cx="30" cy="-40" r="3" fill="#ffffff" filter="url(#softGlow)" />
    <circle cx="25" cy="-35" r="2" fill="#ffffff" filter="url(#softGlow)" />
    <circle cx="20" cy="-30" r="2.5" fill="#ffffff" filter="url(#softGlow)" />
    
    <!-- Halo digital -->
    <ellipse cx="0" cy="-135" rx="30" ry="10" 
             fill="none" stroke="#ffffff" stroke-width="3" opacity="0.8" 
             transform="rotate(0)" />
    
    <!-- Puntos de luz en las manos -->
    <circle cx="-40" cy="0" r="5" fill="#ffffff" filter="url(#glow)" />
    <circle cx="40" cy="0" r="5" fill="#ffffff" filter="url(#glow)" />
  </g>
  
  <!-- Título del libro -->
  <g transform="translate(400, 200)">
    <text x="0" y="0" font-family="Arial, sans-serif" font-size="90" font-weight="bold" 
          text-anchor="middle" fill="#ffffff">MESÍAS</text>
    <text x="0" y="90" font-family="Arial, sans-serif" font-size="90" font-weight="bold" 
          text-anchor="middle" fill="#ffffff">MODERNO</text>
  </g>
  
  <!-- Nombre del autor -->
  <g transform="translate(400, 1050)">
    <text x="0" y="0" font-family="Arial, sans-serif" font-size="40" font-weight="bold"
          text-anchor="middle" fill="#ffffff" opacity="0.9">
      Rubén Pozo
    </text>
    
    <!-- Claude.ai -->
    <text x="0" y="60" font-family="Arial, sans-serif" font-size="30" font-style="italic"
          text-anchor="middle" fill="#0088ff" opacity="0.8" filter="url(#softGlow)">
      Claude.ai
    </text>
  </g>
  
  <!-- Línea luminosa separadora -->
  <line x1="200" y1="1000" x2="600" y2="1000" stroke="#ffffff" stroke-width="2" opacity="0.5" />
  
  <!-- Elementos de conexión entre la figura y los circuitos -->
  <path d="M 400,700 L 400,800" stroke="#0088ff" stroke-width="2" opacity="0.7" />
  <circle cx="400" cy="800" r="6" fill="#ffffff" filter="url(#glow)" />
  
  <!-- Efecto de luz brillante desde arriba -->
  <polygon points="350,350 450,350 500,100 300,100" 
           fill="#ffffff" opacity="0.1" />
</svg>